<?xml version="1.0" encoding="UTF-8"?>
<svg width="9px" height="17px" viewBox="0 0 9 17" version="1.1" xmlns="http://www.w3.org/2000/svg" xmlns:xlink="http://www.w3.org/1999/xlink">
    <!-- Generator: Sketch 48.2 (47327) - http://www.bohemiancoding.com/sketch -->
    <title>Page 1</title>
    <desc>Created with Sketch.</desc>
    <defs>
        <polygon id="path-1" points="8.96289022 2.08332594e-05 8.96289022 16.5974034 1.11836221e-05 16.5974034 1.11836221e-05 2.08332594e-05 8.96289022 2.08332594e-05"></polygon>
    </defs>
    <g id="Landing" stroke="none" stroke-width="1" fill="none" fill-rule="evenodd" transform="translate(-590.000000, -2489.000000)">
        <g id="Page-1" transform="translate(590.000000, 2489.000000)">
            <mask id="mask-2" fill="white">
                <use xlink:href="#path-1"></use>
            </mask>
            <g id="Clip-2"></g>
            <path d="M7.14791138,2.76604233 L8.96290141,2.76604233 L8.96290141,0.000151805188 L6.70895422,0.000151805188 L6.24293269,0.000151805188 C6.24293269,0.000151805188 4.53295687,-0.0409440279 3.44266556,1.33278449 C3.44266556,1.33278449 2.70018489,2.01157055 2.68888943,3.99902576 L2.68833025,3.99902576 L2.68833025,6.07344365 L1.11836221e-05,6.07344365 L1.11836221e-05,9.01033188 L2.68833025,9.01033188 L2.68833025,16.5974467 L5.78898947,16.5974467 L5.78898947,9.01033188 L8.45628333,9.01033188 L8.82802692,6.07344365 L5.78898947,6.07344365 L5.78898947,3.99902576 L5.78820661,3.99902576 C5.79569964,3.76730598 5.90205589,2.74522333 7.14791138,2.76604233" id="Fill-1" fill="#FFFFFF" mask="url(#mask-2)"></path>
        </g>
    </g>
</svg>