<?xml version="1.0" encoding="UTF-8"?>
<svg width="14px" height="14px" viewBox="0 0 14 14" version="1.1" xmlns="http://www.w3.org/2000/svg" xmlns:xlink="http://www.w3.org/1999/xlink">
    <!-- Generator: Sketch 48.2 (47327) - http://www.bohemiancoding.com/sketch -->
    <title>LinkedIn_3_</title>
    <desc>Created with Sketch.</desc>
    <defs></defs>
    <g id="Landing" stroke="none" stroke-width="1" fill="none" fill-rule="evenodd" transform="translate(-771.000000, -2491.000000)">
        <path d="M785,2499.18602 L785,2504.35017 L781.998153,2504.35017 L781.998153,2499.52949 C781.998153,2498.31747 781.565328,2497.49374 780.479151,2497.49374 C779.648487,2497.49374 779.158481,2498.05144 778.93974,2498.58815 C778.860981,2498.78143 778.83706,2499.05211 778.83706,2499.31932 L778.83706,2504.34956 L775.838171,2504.34956 C775.838171,2504.34956 775.878429,2496.18799 775.838171,2495.34273 L778.837675,2495.34273 L778.837675,2496.61935 C778.833606,2496.62983 778.824851,2496.63854 778.820752,2496.6502 L778.837675,2496.6502 L778.837675,2496.61935 C779.238411,2496.00578 779.94833,2495.13139 781.542578,2495.13139 C783.521255,2495.13142 785,2496.41853 785,2499.18602 Z M772.698071,2491 C771.672002,2491 771,2491.67179 771,2492.55782 C771,2493.41997 771.652181,2494.11447 772.659569,2494.11447 L772.677664,2494.11447 C773.726481,2494.11447 774.37632,2493.41997 774.37632,2492.55782 C774.355913,2491.67179 773.726511,2491 772.698071,2491 Z M771.179097,2504.35014 L774.179187,2504.35014 L774.179187,2495.34217 L771.179097,2495.34217 L771.179097,2504.35014 Z" id="LinkedIn_3_" fill="#FFFFFF" fill-rule="nonzero"></path>
    </g>
</svg>