<?xml version="1.0" encoding="UTF-8"?>
<svg width="19px" height="13px" viewBox="0 0 19 13" version="1.1" xmlns="http://www.w3.org/2000/svg" xmlns:xlink="http://www.w3.org/1999/xlink">
    <!-- Generator: Sketch 48.2 (47327) - http://www.bohemiancoding.com/sketch -->
    <title>Group 4</title>
    <desc>Created with Sketch.</desc>
    <defs></defs>
    <g id="Landing" stroke="none" stroke-width="1" fill="none" fill-rule="evenodd" transform="translate(-493.000000, -2491.000000)">
        <g id="Group-4" transform="translate(494.000000, 2492.000000)" fill="#FFFFFF" fill-rule="nonzero">
            <path d="M15.3143407,11.1573831 L1.42067633,11.1573831 C0.713898237,11.1573831 0.141025641,10.6438828 0.141025641,10.0105865 L0.141025641,1.98275115 C0.141025641,1.34935117 0.714013922,0.835954551 1.42067633,0.835954551 L15.3143985,0.835954551 C16.0211766,0.835954551 16.5940492,1.34945485 16.5940492,1.98275115 L16.5940492,10.0105347 C16.5939914,10.6438828 16.0210609,11.1573831 15.3143407,11.1573831 Z" id="Shape"></path>
            <path d="M8.36750851,6.76982884 L16.5939914,1.77519023 L16.5939914,1.4051563 C16.5939914,0.689964181 16.0210031,0.110271673 15.3143407,0.110271673 L1.42067633,0.110271673 C0.714013922,0.110271673 0.141025641,0.690081243 0.141025641,1.4051563 L0.141025641,1.77519023 L8.36750851,6.76982884 Z" id="Shape" stroke="#0E9EBE"></path>
        </g>
    </g>
</svg>