<?xml version="1.0" encoding="UTF-8"?>
<svg width="15px" height="13px" viewBox="0 0 15 13" version="1.1" xmlns="http://www.w3.org/2000/svg" xmlns:xlink="http://www.w3.org/1999/xlink">
    <!-- Generator: Sketch 48.2 (47327) - http://www.bohemiancoding.com/sketch -->
    <title>Page 1</title>
    <desc>Created with Sketch.</desc>
    <defs></defs>
    <g id="Landing" stroke="none" stroke-width="1" fill="none" fill-rule="evenodd" transform="translate(-678.000000, -2491.000000)">
        <path d="M682.717536,2503.20998 C688.378823,2503.20998 691.4743,2498.51198 691.4743,2494.43925 C691.4743,2494.30608 691.472219,2494.17303 691.465117,2494.04121 C692.0669,2493.60651 692.588731,2493.06206 693,2492.44501 C692.448907,2492.68989 691.85496,2492.85543 691.233342,2492.93023 C691.868795,2492.54826 692.355609,2491.94445 692.586772,2491.22526 C691.992825,2491.57756 691.333007,2491.83544 690.632294,2491.97413 C690.069447,2491.37425 689.271886,2491 688.38568,2491 C686.685996,2491 685.308936,2492.38063 685.308936,2494.08131 C685.308936,2494.32325 685.335994,2494.55759 685.387908,2494.7853 C682.830423,2494.65483 680.560913,2493.42895 679.043906,2491.56432 C678.780297,2492.01926 678.62725,2492.54826 678.62725,2493.11258 C678.62725,2494.18186 679.169895,2495.12558 679.997331,2495.67887 C679.492641,2495.66292 679.017092,2495.52436 678.603007,2495.29284 C678.602272,2495.3067 678.602272,2495.31896 678.602272,2495.33221 C678.602272,2496.82577 679.663687,2498.07188 681.070377,2498.35392 C680.813625,2498.42406 680.540833,2498.46281 680.26045,2498.46281 C680.061856,2498.46281 679.869261,2498.44221 679.681686,2498.40591 C680.074222,2499.63204 681.210324,2500.52291 682.556285,2500.54792 C681.503196,2501.37515 680.175968,2501.86749 678.733771,2501.86749 C678.485956,2501.86749 678.24157,2501.85302 678,2501.82432 C679.361755,2502.69962 680.979161,2503.20998 682.717536,2503.20998" id="Page-1" fill="#FFFFFF"></path>
    </g>
</svg>