<?xml version="1.0" encoding="UTF-8"?>
<svg width="27px" height="27px" viewBox="0 0 27 27" version="1.1" xmlns="http://www.w3.org/2000/svg" xmlns:xlink="http://www.w3.org/1999/xlink">
    <!-- Generator: Sketch 48.2 (47327) - http://www.bohemiancoding.com/sketch -->
    <title>Group 5</title>
    <desc>Created with Sketch.</desc>
    <defs>
        <circle id="path-1" cx="9.55657492" cy="9.55657492" r="9.55657492"></circle>
        <filter x="-31.4%" y="-31.4%" width="162.8%" height="162.8%" filterUnits="objectBoundingBox" id="filter-2">
            <feOffset dx="0" dy="0" in="SourceAlpha" result="shadowOffsetOuter1"></feOffset>
            <feGaussianBlur stdDeviation="2" in="shadowOffsetOuter1" result="shadowBlurOuter1"></feGaussianBlur>
            <feColorMatrix values="0 0 0 0 0.769478104   0 0 0 0 0.765789199   0 0 0 0 0.765789199  0 0 0 0.5 0" type="matrix" in="shadowBlurOuter1"></feColorMatrix>
        </filter>
        <polygon id="path-3" points="4.89454468 1.13768346e-05 4.89454468 9.06367593 6.1072642e-06 9.06367593 6.1072642e-06 1.13768346e-05 4.89454468 1.13768346e-05"></polygon>
    </defs>
    <g id="Landing" stroke="none" stroke-width="1" fill="none" fill-rule="evenodd" transform="translate(-1061.000000, -18.000000)">
        <g id="Group-5" transform="translate(1065.000000, 22.000000)">
            <g id="Oval-5-Copy">
                <use fill="black" fill-opacity="1" filter="url(#filter-2)" xlink:href="#path-1"></use>
                <use fill="#FFFFFF" fill-rule="evenodd" xlink:href="#path-1"></use>
            </g>
            <g id="Page-1" transform="translate(7.099170, 4.914810)">
                <mask id="mask-4" fill="white">
                    <use xlink:href="#path-3"></use>
                </mask>
                <g id="Clip-2"></g>
                <path d="M3.9034029,1.51050804 L4.89455079,1.51050804 L4.89455079,8.28992944e-05 L3.66369278,8.28992944e-05 L3.40920308,8.28992944e-05 C3.40920308,8.28992944e-05 2.4754024,-0.022359124 1.88000522,0.727820277 C1.88000522,0.727820277 1.47454396,1.09849855 1.46837562,2.18382796 L1.46807026,2.18382796 L1.46807026,3.31664682 L6.1072642e-06,3.31664682 L6.1072642e-06,4.9204521 L1.46807026,4.9204521 L1.46807026,9.06369962 L3.16130923,9.06369962 L3.16130923,4.9204521 L4.61789172,4.9204521 L4.82089718,3.31664682 L3.16130923,3.31664682 L3.16130923,2.18382796 L3.16088172,2.18382796 C3.16497359,2.05728811 3.22305367,1.499139 3.9034029,1.51050804" id="Fill-1" fill="#11ADC5" mask="url(#mask-4)"></path>
            </g>
        </g>
    </g>
</svg>