<?xml version="1.0" encoding="UTF-8"?>
<svg width="27px" height="27px" viewBox="0 0 27 27" version="1.1" xmlns="http://www.w3.org/2000/svg" xmlns:xlink="http://www.w3.org/1999/xlink">
    <!-- Generator: Sketch 48.2 (47327) - http://www.bohemiancoding.com/sketch -->
    <title>Group 6</title>
    <desc>Created with Sketch.</desc>
    <defs>
        <circle id="path-1" cx="9.726955" cy="9.55657492" r="9.55657492"></circle>
        <filter x="-31.4%" y="-31.4%" width="162.8%" height="162.8%" filterUnits="objectBoundingBox" id="filter-2">
            <feOffset dx="0" dy="0" in="SourceAlpha" result="shadowOffsetOuter1"></feOffset>
            <feGaussianBlur stdDeviation="2" in="shadowOffsetOuter1" result="shadowBlurOuter1"></feGaussianBlur>
            <feColorMatrix values="0 0 0 0 0.769478104   0 0 0 0 0.765789199   0 0 0 0 0.765789199  0 0 0 0.5 0" type="matrix" in="shadowBlurOuter1"></feColorMatrix>
        </filter>
    </defs>
    <g id="Landing" stroke="none" stroke-width="1" fill="none" fill-rule="evenodd" transform="translate(-1089.000000, -18.000000)">
        <g id="Group-6" transform="translate(1093.000000, 22.000000)">
            <g id="Oval-5-Copy">
                <use fill="black" fill-opacity="1" filter="url(#filter-2)" xlink:href="#path-1"></use>
                <use fill="#FFFFFF" fill-rule="evenodd" xlink:href="#path-1"></use>
            </g>
            <path d="M8.20747901,12.6747376 C11.2990515,12.6747376 12.9894606,10.1092097 12.9894606,7.88513158 C12.9894606,7.81240859 12.988324,7.73975256 12.9844459,7.66776617 C13.3130735,7.4303785 13.59804,7.13305797 13.82263,6.7960947 C13.5216834,6.92982198 13.1973351,7.02022349 12.8578759,7.06107158 C13.2048905,6.85247846 13.4707344,6.52274732 13.5969702,6.13000297 C13.2726219,6.32239078 12.9123017,6.46321625 12.5296495,6.53895263 C12.2222842,6.21136433 11.7867441,6.00698995 11.3027958,6.00698995 C10.3746153,6.00698995 9.6226166,6.76093856 9.6226166,7.68966342 C9.6226166,7.82178356 9.63739314,7.94975192 9.6657427,8.07410422 C8.26912592,8.00285444 7.02976895,7.3334145 6.2013468,6.31515866 C6.05739257,6.56359541 5.97381487,6.85247846 5.97381487,7.16064717 C5.97381487,7.74457397 6.27014796,8.25992955 6.72200243,8.5620715 C6.44639661,8.55336616 6.18670399,8.47769675 5.96057617,8.35126856 C5.96017499,8.3588355 5.96017499,8.36553191 5.96017499,8.37276403 C5.96017499,9.18838656 6.53980305,9.86887557 7.30798239,10.022893 C7.16777244,10.0611964 7.01880355,10.0823571 6.86568921,10.0823571 C6.75723879,10.0823571 6.65206461,10.0711071 6.54963179,10.0512857 C6.76399187,10.7208596 7.38440584,11.2073537 8.11942155,11.2210143 C7.54434012,11.672754 6.81955432,11.9416148 6.03198495,11.9416148 C5.89665594,11.9416148 5.76319907,11.9337131 5.63128003,11.9180435 C6.37492096,12.3960331 7.25817008,12.6747376 8.20747901,12.6747376" id="Page-1" fill="#11ACC6"></path>
        </g>
    </g>
</svg>