<svg xmlns="http://www.w3.org/2000/svg" viewBox="0 0 16.15 16.15"><defs><style>.cls-1{fill:#fff;}</style></defs><title>instagram</title><g id="Layer_2" data-name="Layer 2"><g id="Layer_1-2" data-name="Layer 1"><g id="Flat_copy" data-name="Flat copy"><path class="cls-1" d="M14.13,0H2A2,2,0,0,0,0,2V14.13a2,2,0,0,0,2,2H14.13a2,2,0,0,0,2-2V2A2,2,0,0,0,14.13,0Zm-6,4.9a3.2,3.2,0,0,1,3.24,3.15,3.19,3.19,0,0,1-3.24,3.14A3.19,3.19,0,0,1,4.85,8.05,3.2,3.2,0,0,1,8.09,4.9Zm6,8.73c0,.35-.15.5-.5.5H2.52c-.35,0-.5-.15-.5-.5V6.56l1.26.28a4.52,4.52,0,0,0-.21,1.38,4.94,4.94,0,0,0,5,4.86,4.94,4.94,0,0,0,5-4.86,4.85,4.85,0,0,0-.21-1.38l1.23-.28v7.07Zm0-9.09a.5.5,0,0,1-.5.51h-2a.51.51,0,0,1-.51-.51v-2a.5.5,0,0,1,.51-.5h2a.5.5,0,0,1,.5.5Z"/></g></g></g></svg>