<svg xmlns="http://www.w3.org/2000/svg" viewBox="0 0 119.49 59.65"><defs><style>.cls-1{fill:#fff;}</style></defs><title>logo</title><g id="Layer_2" data-name="Layer 2"><g id="Layer_1-2" data-name="Layer 1"><g id="Page-1"><g id="_1" data-name="1"><g id="Group-2"><g id="Layer_1-3" data-name="Layer 1"><g id="Group"><path id="Shape" class="cls-1" d="M23.92,58.63a1,1,0,1,1-.9-1.11A1,1,0,0,1,23.92,58.63Z"/><path id="Shape-2" data-name="Shape" class="cls-1" d="M30.19,58.63a1,1,0,1,1-.9-1.11A1,1,0,0,1,30.19,58.63Z"/><path id="Shape-3" data-name="Shape" class="cls-1" d="M30.52,55.24a1,1,0,1,1-2-.43,1,1,0,1,1,2,.43Z"/><path id="Shape-4" data-name="Shape" class="cls-1" d="M31.24,51.91a1,1,0,1,1-.63-1.28A1,1,0,0,1,31.24,51.91Z"/><circle id="Oval" class="cls-1" cx="31.43" cy="48.25" r="1.01"/><path id="Shape-5" data-name="Shape" class="cls-1" d="M33.79,45.61a1,1,0,0,1-1.39.32,1,1,0,1,1,1.39-.32Z"/><path id="Shape-6" data-name="Shape" class="cls-1" d="M35.59,42.72A1,1,0,1,1,34,41.46a1,1,0,0,1,1.57,1.26Z"/><path id="Shape-7" data-name="Shape" class="cls-1" d="M37.71,40.06a1,1,0,0,1-1.42-1.43,1,1,0,1,1,1.42,1.43Z"/><path id="Shape-8" data-name="Shape" class="cls-1" d="M40.12,37.65a1,1,0,0,1-1.24-1.58,1,1,0,1,1,1.24,1.58Z"/><circle id="Oval-2" data-name="Oval" class="cls-1" cx="42.26" cy="34.68" r="1.01"/><path id="Shape-9" data-name="Shape" class="cls-1" d="M45.68,33.75a1,1,0,0,1-1.33-.49,1,1,0,1,1,1.33.49Z"/><path id="Shape-10" data-name="Shape" class="cls-1" d="M48.77,32.3a1,1,0,1,1-.64-1.91,1,1,0,0,1,.64,1.91Z"/><path id="Shape-11" data-name="Shape" class="cls-1" d="M52,31.21a1,1,0,0,1-1.19-.77,1,1,0,1,1,1.19.77Z"/><path id="Shape-12" data-name="Shape" class="cls-1" d="M55.19,30.5a1,1,0,1,1-.19-2,1,1,0,1,1,.19,2Z"/><path id="Shape-13" data-name="Shape" class="cls-1" d="M58.51,30.15a1,1,0,0,1-1-1,1,1,0,0,1,1-1,1,1,0,0,1,1,1A1,1,0,0,1,58.51,30.15Z"/><path id="Shape-14" data-name="Shape" class="cls-1" d="M61.88,30.25A1,1,0,1,1,63,29.39,1,1,0,0,1,61.88,30.25Z"/><path id="Shape-15" data-name="Shape" class="cls-1" d="M65,30.54a1,1,0,0,1,.5-1.95,1,1,0,1,1-.5,1.95Z"/><path id="Shape-16" data-name="Shape" class="cls-1" d="M68,31.18a1,1,0,1,1,1.3-.58A1,1,0,0,1,68,31.18Z"/><path id="Shape-17" data-name="Shape" class="cls-1" d="M71.33,32.36A1,1,0,0,1,70.9,31a1,1,0,1,1,1.78.93A1,1,0,0,1,71.33,32.36Z"/><path id="Shape-18" data-name="Shape" class="cls-1" d="M74.2,33.68a1,1,0,1,1,1.4-.27A1,1,0,0,1,74.2,33.68Z"/><path id="Shape-19" data-name="Shape" class="cls-1" d="M77.21,35.56a1,1,0,0,1-.1-1.43,1,1,0,1,1,.1,1.43Z"/><path id="Shape-20" data-name="Shape" class="cls-1" d="M79.61,37.7a1,1,0,0,1,0-1.42A1,1,0,1,1,81,37.76,1,1,0,0,1,79.61,37.7Z"/><path id="Shape-21" data-name="Shape" class="cls-1" d="M81.76,40.1a1,1,0,0,1,1.63-1.18,1,1,0,0,1-.22,1.4A1,1,0,0,1,81.76,40.1Z"/><path id="Shape-22" data-name="Shape" class="cls-1" d="M83.92,42.87a1,1,0,1,1,1.38.38A1,1,0,0,1,83.92,42.87Z"/><path id="Shape-23" data-name="Shape" class="cls-1" d="M85.92,45.65a1,1,0,0,1,.53-1.32,1,1,0,0,1,1.32.54,1,1,0,1,1-1.85.78Z"/><path id="Shape-24" data-name="Shape" class="cls-1" d="M87.4,49a1,1,0,1,1,1.25.68A1,1,0,0,1,87.4,49Z"/><path id="Shape-25" data-name="Shape" class="cls-1" d="M88.37,52a1,1,0,1,1,1.16.82A1,1,0,0,1,88.37,52Z"/><path id="Shape-26" data-name="Shape" class="cls-1" d="M89.1,55.4a1,1,0,0,1,1-1.06,1,1,0,1,1-1,1.06Z"/><path id="Shape-27" data-name="Shape" class="cls-1" d="M89.29,58.45a1,1,0,1,1,.95,1.07A1,1,0,0,1,89.29,58.45Z"/><circle id="Oval-3" data-name="Oval" class="cls-1" cx="23.22" cy="54.95" r="1.01"/><circle id="Oval-4" data-name="Oval" class="cls-1" cx="23.87" cy="51.43" r="1.01"/><circle id="Oval-5" data-name="Oval" class="cls-1" cx="24.85" cy="47.99" r="1.01"/><path id="Shape-28" data-name="Shape" class="cls-1" d="M27.05,45.12a1,1,0,1,1-.42-1.36A1,1,0,0,1,27.05,45.12Z"/><circle id="Oval-6" data-name="Oval" class="cls-1" cx="27.79" cy="41.46" r="1.01"/><path id="Shape-29" data-name="Shape" class="cls-1" d="M30.5,39.08a1,1,0,0,1-1.56-1.27,1,1,0,1,1,1.56,1.27Z"/><circle id="Oval-7" data-name="Oval" class="cls-1" cx="31.93" cy="35.63" r="1.01"/><circle id="Oval-8" data-name="Oval" class="cls-1" cx="34.41" cy="33.04" r="1.01"/><path id="Shape-30" data-name="Shape" class="cls-1" d="M37.69,31.53A1,1,0,1,1,38,30.14,1,1,0,0,1,37.69,31.53Z"/><path id="Shape-31" data-name="Shape" class="cls-1" d="M40.54,29.52a1,1,0,1,1-1-1.77,1,1,0,0,1,1,1.77Z"/><path id="Shape-32" data-name="Shape" class="cls-1" d="M43.56,27.79a1,1,0,1,1,.54-1.32A1,1,0,0,1,43.56,27.79Z"/><path id="Shape-33" data-name="Shape" class="cls-1" d="M46.74,26.37a1,1,0,1,1,.66-1.26A1,1,0,0,1,46.74,26.37Z"/><path id="Shape-34" data-name="Shape" class="cls-1" d="M50.05,25.26a1,1,0,1,1-.42-2,1,1,0,0,1,.42,2Z"/><path id="Shape-35" data-name="Shape" class="cls-1" d="M53.44,24.47a1,1,0,0,1-1.11-.89,1,1,0,1,1,1.11.89Z"/><path id="Shape-36" data-name="Shape" class="cls-1" d="M57.39,24a1,1,0,1,1,1-1A1,1,0,0,1,57.39,24Z"/><path id="Shape-37" data-name="Shape" class="cls-1" d="M20.8,58.57a1,1,0,1,1-1-1A1,1,0,0,1,20.8,58.57Z"/><path id="Shape-38" data-name="Shape" class="cls-1" d="M21.07,55.07a1,1,0,1,1-.9-1.11A1,1,0,0,1,21.07,55.07Z"/><path id="Shape-39" data-name="Shape" class="cls-1" d="M21.65,51.61a1,1,0,1,1-.79-1.18A1,1,0,0,1,21.65,51.61Z"/><path id="Shape-40" data-name="Shape" class="cls-1" d="M22.54,48.21A1,1,0,1,1,21.86,47,1,1,0,0,1,22.54,48.21Z"/><circle id="Oval-9" data-name="Oval" class="cls-1" cx="22.8" cy="44.54" r="1.01"/><circle id="Oval-10" data-name="Oval" class="cls-1" cx="24.32" cy="41.28" r="1.01"/><circle id="Oval-11" data-name="Oval" class="cls-1" cx="26.13" cy="38.16" r="1.01"/><path id="Shape-41" data-name="Shape" class="cls-1" d="M29,35.83a1,1,0,0,1-1.41.2,1,1,0,0,1-.2-1.41A1,1,0,0,1,29,35.83Z"/><path id="Shape-42" data-name="Shape" class="cls-1" d="M31.3,33.16a1,1,0,1,1-.08-1.42A1,1,0,0,1,31.3,33.16Z"/><path id="Shape-43" data-name="Shape" class="cls-1" d="M33.81,30.71a1,1,0,1,1,0-1.43A1,1,0,0,1,33.81,30.71Z"/><path id="Shape-44" data-name="Shape" class="cls-1" d="M36.53,28.49a1,1,0,0,1-1.41-.19,1,1,0,1,1,1.41.19Z"/><path id="Shape-45" data-name="Shape" class="cls-1" d="M39.44,26.52a1,1,0,1,1,.31-1.39A1,1,0,0,1,39.44,26.52Z"/><circle id="Oval-12" data-name="Oval" class="cls-1" cx="42.05" cy="23.93" r="1.01"/><circle id="Oval-13" data-name="Oval" class="cls-1" cx="45.34" cy="22.48" r="1.01"/><path id="Shape-46" data-name="Shape" class="cls-1" d="M49.05,22.29A1,1,0,1,1,49.72,21,1,1,0,0,1,49.05,22.29Z"/><path id="Shape-47" data-name="Shape" class="cls-1" d="M52.47,21.47a1,1,0,0,1-1.19-.78,1,1,0,1,1,1.19.78Z"/><path id="Shape-48" data-name="Shape" class="cls-1" d="M55.94,21a1,1,0,0,1-1.11-.89,1,1,0,0,1,2-.23A1,1,0,0,1,55.94,21Z"/><path id="Shape-49" data-name="Shape" class="cls-1" d="M17.6,58.16a1,1,0,1,1-1.3-.57A1,1,0,0,1,17.6,58.16Z"/><path id="Shape-50" data-name="Shape" class="cls-1" d="M17.88,54.69a1,1,0,1,1-1.93.58,1,1,0,0,1,1.93-.58Z"/><path id="Shape-51" data-name="Shape" class="cls-1" d="M18.44,51.26a1,1,0,1,1-2,.41,1,1,0,0,1,.78-1.19A1,1,0,0,1,18.44,51.26Z"/><circle id="Oval-14" data-name="Oval" class="cls-1" cx="18.29" cy="48.01" r="1.01"/><path id="Shape-52" data-name="Shape" class="cls-1" d="M20.41,44.6a1,1,0,1,1-1.05-1A1,1,0,0,1,20.41,44.6Z"/><path id="Shape-53" data-name="Shape" class="cls-1" d="M21.79,41.41a1,1,0,1,1-1-1A1,1,0,0,1,21.79,41.41Z"/><circle id="Oval-15" data-name="Oval" class="cls-1" cx="22.44" cy="38.22" r="1.01"/><path id="Shape-54" data-name="Shape" class="cls-1" d="M25.33,35.42a1,1,0,0,1-1.2.78,1,1,0,0,1,.42-2A1,1,0,0,1,25.33,35.42Z"/><path id="Shape-55" data-name="Shape" class="cls-1" d="M27.45,32.67a1,1,0,1,1-1.93-.58,1,1,0,0,1,1.93.58Z"/><path id="Shape-56" data-name="Shape" class="cls-1" d="M29.79,30.1a1,1,0,1,1-.57-1.3A1,1,0,0,1,29.79,30.1Z"/><path id="Shape-57" data-name="Shape" class="cls-1" d="M32.34,27.73a1,1,0,1,1-.46-1.35A1,1,0,0,1,32.34,27.73Z"/><path id="Shape-58" data-name="Shape" class="cls-1" d="M35.07,25.58a1,1,0,1,1-1.73-1,1,1,0,0,1,1.73,1Z"/><path id="Shape-59" data-name="Shape" class="cls-1" d="M38,23.66a1,1,0,0,1-1.64-1.17A1,1,0,1,1,38,23.66Z"/><path id="Shape-60" data-name="Shape" class="cls-1" d="M41,22a1,1,0,1,1-.12-1.41A1,1,0,0,1,41,22Z"/><path id="Shape-61" data-name="Shape" class="cls-1" d="M44.19,20.56a1,1,0,0,1-1.42,0,1,1,0,0,1,0-1.43,1,1,0,1,1,1.42,1.42Z"/><path id="Shape-62" data-name="Shape" class="cls-1" d="M47.48,19.41A1,1,0,1,1,47.59,18,1,1,0,0,1,47.48,19.41Z"/><path id="Shape-63" data-name="Shape" class="cls-1" d="M50.84,18.53a1,1,0,1,1,.23-1.4A1,1,0,0,1,50.84,18.53Z"/><path id="Shape-64" data-name="Shape" class="cls-1" d="M54.27,17.93a1,1,0,1,1,.34-1.38A1,1,0,0,1,54.27,17.93Z"/><path id="Shape-65" data-name="Shape" class="cls-1" d="M57.73,17.62a1,1,0,1,1,.46-1.35A1,1,0,0,1,57.73,17.62Z"/><circle id="Oval-16" data-name="Oval" class="cls-1" cx="13.53" cy="58.52" r="1.01"/><circle id="Oval-17" data-name="Oval" class="cls-1" cx="13.77" cy="54.96" r="1.01"/><circle id="Oval-18" data-name="Oval" class="cls-1" cx="14.28" cy="51.42" r="1.01"/><path id="Shape-66" data-name="Shape" class="cls-1" d="M16,48.26A1,1,0,1,1,15.39,47,1,1,0,0,1,16,48.26Z"/><path id="Shape-67" data-name="Shape" class="cls-1" d="M17,44.91a1,1,0,0,1-1.32.52A1,1,0,1,1,17,44.91Z"/><path id="Shape-68" data-name="Shape" class="cls-1" d="M18.32,41.65a1,1,0,1,1-.42-1.36A1,1,0,0,1,18.32,41.65Z"/><path id="Shape-69" data-name="Shape" class="cls-1" d="M19.84,38.51a1,1,0,0,1-1.38.31,1,1,0,0,1-.32-1.39,1,1,0,1,1,1.7,1.08Z"/><path id="Shape-70" data-name="Shape" class="cls-1" d="M21.61,35.48A1,1,0,1,1,20,34.28a1,1,0,0,1,1.4-.2A1,1,0,0,1,21.61,35.48Z"/><path id="Shape-71" data-name="Shape" class="cls-1" d="M23.6,32.61a1,1,0,1,1-.09-1.42A1,1,0,0,1,23.6,32.61Z"/><circle id="Oval-19" data-name="Oval" class="cls-1" cx="25.1" cy="29.18" r="1.01"/><path id="Shape-72" data-name="Shape" class="cls-1" d="M28.22,27.36a1,1,0,0,1-1.42-.13,1,1,0,0,1,1.54-1.29A1,1,0,0,1,28.22,27.36Z"/><path id="Shape-73" data-name="Shape" class="cls-1" d="M30.82,25a1,1,0,1,1,.23-1.41A1,1,0,0,1,30.82,25Z"/><circle id="Oval-20" data-name="Oval" class="cls-1" cx="33.07" cy="22.02" r="1.01"/><path id="Shape-74" data-name="Shape" class="cls-1" d="M36.52,21a1,1,0,0,1-.91-1.8,1,1,0,0,1,1.36.45A1,1,0,0,1,36.52,21Z"/><circle id="Oval-21" data-name="Oval" class="cls-1" cx="39.21" cy="18.35" r="1.01"/><path id="Shape-75" data-name="Shape" class="cls-1" d="M42.78,17.84a1,1,0,1,1-.62-1.91,1,1,0,0,1,.62,1.91Z"/><path id="Shape-76" data-name="Shape" class="cls-1" d="M46.06,16.65a1,1,0,1,1,.75-1.21A1,1,0,0,1,46.06,16.65Z"/><path id="Shape-77" data-name="Shape" class="cls-1" d="M49.44,15.72a1,1,0,1,1,.83-1.15A1,1,0,0,1,49.44,15.72Z"/><path id="Shape-78" data-name="Shape" class="cls-1" d="M52.87,15.05A1,1,0,1,1,53.79,14,1,1,0,0,1,52.87,15.05Z"/><path id="Shape-79" data-name="Shape" class="cls-1" d="M56.35,14.65a1,1,0,1,1,1-1A1,1,0,0,1,56.35,14.65Z"/><circle id="Oval-22" data-name="Oval" class="cls-1" cx="10.4" cy="58.52" r="1.01"/><circle id="Oval-23" data-name="Oval" class="cls-1" cx="10.62" cy="55.01" r="1.01"/><circle id="Oval-24" data-name="Oval" class="cls-1" cx="11.09" cy="51.51" r="1.01"/><path id="Shape-80" data-name="Shape" class="cls-1" d="M12.76,48.37a1,1,0,1,1-.65-1.27A1,1,0,0,1,12.76,48.37Z"/><path id="Shape-81" data-name="Shape" class="cls-1" d="M13.7,45a1,1,0,1,1-.56-1.31A1,1,0,0,1,13.7,45Z"/><circle id="Oval-25" data-name="Oval" class="cls-1" cx="13.96" cy="41.35" r="1.01"/><path id="Shape-82" data-name="Shape" class="cls-1" d="M16.27,38.63a1,1,0,1,1-.36-1.37A1,1,0,0,1,16.27,38.63Z"/><path id="Shape-83" data-name="Shape" class="cls-1" d="M17.89,35.58a1,1,0,1,1-1.66-1.13,1,1,0,0,1,1.66,1.13Z"/><circle id="Oval-26" data-name="Oval" class="cls-1" cx="18.93" cy="32.03" r="1.01"/><circle id="Oval-27" data-name="Oval" class="cls-1" cx="21.02" cy="29.19" r="1.01"/><path id="Shape-84" data-name="Shape" class="cls-1" d="M24,27.23a1,1,0,1,1,0-1.42A1,1,0,0,1,24,27.23Z"/><circle id="Oval-28" data-name="Oval" class="cls-1" cx="25.77" cy="23.98" r="1.01"/><path id="Shape-85" data-name="Shape" class="cls-1" d="M29,22.47a1,1,0,1,1,.24-1.41A1,1,0,0,1,29,22.47Z"/><path id="Shape-86" data-name="Shape" class="cls-1" d="M31.73,20.36A1,1,0,1,1,32.07,19,1,1,0,0,1,31.73,20.36Z"/><path id="Shape-87" data-name="Shape" class="cls-1" d="M34.62,18.46a1,1,0,1,1,.44-1.35A1,1,0,0,1,34.62,18.46Z"/><path id="Shape-88" data-name="Shape" class="cls-1" d="M37.63,16.77a1,1,0,1,1,.53-1.32A1,1,0,0,1,37.63,16.77Z"/><path id="Shape-89" data-name="Shape" class="cls-1" d="M40.75,15.3A1,1,0,1,1,41.38,14,1,1,0,0,1,40.75,15.3Z"/><path id="Shape-90" data-name="Shape" class="cls-1" d="M44,14.05a1,1,0,1,1,.71-1.23A1,1,0,0,1,44,14.05Z"/><path id="Shape-91" data-name="Shape" class="cls-1" d="M47.28,13a1,1,0,1,1,.8-1.18A1,1,0,0,1,47.28,13Z"/><path id="Shape-92" data-name="Shape" class="cls-1" d="M50.64,12.26a1,1,0,0,1-1.11-.88,1,1,0,1,1,2-.23A1,1,0,0,1,50.64,12.26Z"/><path id="Shape-93" data-name="Shape" class="cls-1" d="M54.06,11.73a1,1,0,0,1-1.05-1,1,1,0,0,1,1-1,1,1,0,0,1,1.05,1A1,1,0,0,1,54.06,11.73Z"/><path id="Shape-94" data-name="Shape" class="cls-1" d="M57.5,11.44a1,1,0,0,1,0-2,1,1,0,0,1,0,2Z"/><path id="Shape-95" data-name="Shape" class="cls-1" d="M61,11.4a1,1,0,1,1,1.11-.91A1,1,0,0,1,61,11.4Z"/><path id="Shape-96" data-name="Shape" class="cls-1" d="M64.27,11.37a1,1,0,1,1,1.17-.82A1,1,0,0,1,64.27,11.37Z"/><path id="Shape-97" data-name="Shape" class="cls-1" d="M67.07,11.85a1,1,0,0,1-.73-1.21,1,1,0,0,1,1.21-.74,1,1,0,0,1,.74,1.22A1,1,0,0,1,67.07,11.85Z"/><path id="Shape-98" data-name="Shape" class="cls-1" d="M8.27,58.63a1,1,0,0,1-1.1.9,1,1,0,1,1,1.1-.9Z"/><circle id="Oval-29" data-name="Oval" class="cls-1" cx="7.48" cy="54.91" r="1.01"/><circle id="Oval-30" data-name="Oval" class="cls-1" cx="7.95" cy="51.32" r="1.01"/><path id="Shape-99" data-name="Shape" class="cls-1" d="M9.62,48.07a1,1,0,0,1-1.27.65A1,1,0,0,1,9,46.8,1,1,0,0,1,9.62,48.07Z"/><circle id="Oval-31" data-name="Oval" class="cls-1" cx="9.61" cy="44.27" r="1.01"/><path id="Shape-100" data-name="Shape" class="cls-1" d="M11.71,41.28a1,1,0,1,1-.48-1.34A1,1,0,0,1,11.71,41.28Z"/><path id="Shape-101" data-name="Shape" class="cls-1" d="M13.1,38a1,1,0,1,1-.38-1.37A1,1,0,0,1,13.1,38Z"/><path id="Shape-102" data-name="Shape" class="cls-1" d="M14.71,34.84a1,1,0,0,1-1.39.29,1,1,0,1,1,1.11-1.68A1,1,0,0,1,14.71,34.84Z"/><path id="Shape-103" data-name="Shape" class="cls-1" d="M16.54,31.8a1,1,0,1,1-1.6-1.22,1,1,0,0,1,1.6,1.22Z"/><path id="Shape-104" data-name="Shape" class="cls-1" d="M18.58,28.88a1,1,0,1,1-1.51-1.33,1,1,0,0,1,1.51,1.33Z"/><path id="Shape-105" data-name="Shape" class="cls-1" d="M20.81,26.11a1,1,0,1,1-1.42-1.42,1,1,0,1,1,1.42,1.42Z"/><path id="Shape-106" data-name="Shape" class="cls-1" d="M23.22,23.51a1,1,0,1,1,.11-1.42A1,1,0,0,1,23.22,23.51Z"/><path id="Shape-107" data-name="Shape" class="cls-1" d="M25.81,21.07a1,1,0,0,1-1.41-.2,1,1,0,0,1,.21-1.41,1,1,0,0,1,1.4.21A1,1,0,0,1,25.81,21.07Z"/><path id="Shape-108" data-name="Shape" class="cls-1" d="M28.56,18.82a1,1,0,0,1-1.39-.29,1,1,0,0,1,.3-1.4,1,1,0,0,1,1.09,1.69Z"/><path id="Shape-109" data-name="Shape" class="cls-1" d="M31.46,16.77a1,1,0,1,1-1-1.76,1,1,0,0,1,1.36.39A1,1,0,0,1,31.46,16.77Z"/><path id="Shape-110" data-name="Shape" class="cls-1" d="M34.5,14.92A1,1,0,1,1,35,13.58,1,1,0,0,1,34.5,14.92Z"/><path id="Shape-111" data-name="Shape" class="cls-1" d="M37.65,13.28a1,1,0,1,1,.58-1.3A1,1,0,0,1,37.65,13.28Z"/><path id="Shape-112" data-name="Shape" class="cls-1" d="M40.91,11.86a1,1,0,0,1-1.26-.66,1,1,0,0,1,.67-1.26,1,1,0,0,1,1.25.67A1,1,0,0,1,40.91,11.86Z"/><circle id="Oval-32" data-name="Oval" class="cls-1" cx="4.14" cy="58.52" r="1.01"/><path id="Shape-113" data-name="Shape" class="cls-1" d="M5.33,55.08a1,1,0,1,1-.83-1.16A1,1,0,0,1,5.33,55.08Z"/><path id="Shape-114" data-name="Shape" class="cls-1" d="M5.75,51.55A1,1,0,1,1,5,50.34,1,1,0,0,1,5.75,51.55Z"/><path id="Shape-115" data-name="Shape" class="cls-1" d="M6.41,48.05a1,1,0,1,1-.67-1.25A1,1,0,0,1,6.41,48.05Z"/><path id="Shape-116" data-name="Shape" class="cls-1" d="M7.28,44.61a1,1,0,1,1-.58-1.29A1,1,0,0,1,7.28,44.61Z"/><circle id="Oval-33" data-name="Oval" class="cls-1" cx="7.47" cy="40.82" r="1.01"/><path id="Shape-117" data-name="Shape" class="cls-1" d="M9.7,37.93a1,1,0,0,1-1.36.41,1,1,0,1,1,1.36-.41Z"/><path id="Shape-118" data-name="Shape" class="cls-1" d="M11.23,34.72a1,1,0,0,1-1.39.33,1,1,0,0,1-.32-1.39,1,1,0,0,1,1.38-.32A1,1,0,0,1,11.23,34.72Z"/><path id="Shape-119" data-name="Shape" class="cls-1" d="M13,31.62a1,1,0,0,1-1.64-1.17A1,1,0,0,1,13,31.62Z"/><circle id="Oval-34" data-name="Oval" class="cls-1" cx="14.11" cy="28" r="1.01"/><path id="Shape-120" data-name="Shape" class="cls-1" d="M17,25.78A1,1,0,1,1,17,24.36,1,1,0,0,1,17,25.78Z"/><path id="Shape-121" data-name="Shape" class="cls-1" d="M19.31,23.08a1,1,0,1,1,0-1.43A1,1,0,0,1,19.31,23.08Z"/><path id="Shape-122" data-name="Shape" class="cls-1" d="M21.78,20.52A1,1,0,1,1,20.5,19a1,1,0,0,1,1.42.14A1,1,0,0,1,21.78,20.52Z"/><circle id="Oval-35" data-name="Oval" class="cls-1" cx="23.82" cy="17.32" r="1.01"/><path id="Shape-123" data-name="Shape" class="cls-1" d="M27.2,15.92a1,1,0,1,1,.31-1.38A1,1,0,0,1,27.2,15.92Z"/><path id="Shape-124" data-name="Shape" class="cls-1" d="M30.11,13.9a1,1,0,0,1-.95-1.77,1,1,0,0,1,1.36.4A1,1,0,0,1,30.11,13.9Z"/><path id="Shape-125" data-name="Shape" class="cls-1" d="M33.16,12.06a1,1,0,1,1,.49-1.33A1,1,0,0,1,33.16,12.06Z"/><path id="Shape-126" data-name="Shape" class="cls-1" d="M36.32,10.43a1,1,0,1,1,.58-1.3A1,1,0,0,1,36.32,10.43Z"/><path id="Shape-127" data-name="Shape" class="cls-1" d="M39.57,9a1,1,0,1,1,.67-1.26A1,1,0,0,1,39.57,9Z"/><path id="Shape-128" data-name="Shape" class="cls-1" d="M42.92,7.8a1,1,0,1,1-.47-1.95,1,1,0,0,1,.47,2Z"/><path id="Shape-129" data-name="Shape" class="cls-1" d="M46.33,6.82a1,1,0,1,1,.82-1.17A1,1,0,0,1,46.33,6.82Z"/><path id="Shape-130" data-name="Shape" class="cls-1" d="M49.8,6.05a1,1,0,1,1-.21-2,1,1,0,0,1,.21,2Z"/><path id="Shape-131" data-name="Shape" class="cls-1" d="M53.31,5.51a1,1,0,0,1-.08-2,1,1,0,1,1,.08,2Z"/><path id="Shape-132" data-name="Shape" class="cls-1" d="M56.85,5.2a1,1,0,0,1-1-1,1,1,0,0,1,1-1,1,1,0,0,1,1,1A1,1,0,0,1,56.85,5.2Z"/><path id="Shape-133" data-name="Shape" class="cls-1" d="M60.41,5.13a1,1,0,1,1,1.09-.92A1,1,0,0,1,60.41,5.13Z"/><path id="Shape-134" data-name="Shape" class="cls-1" d="M64,5.28a1,1,0,1,1,1.14-.84A1,1,0,0,1,64,5.28Z"/><path id="Shape-135" data-name="Shape" class="cls-1" d="M67.49,5.66a1,1,0,1,1,1.2-.76A1,1,0,0,1,67.49,5.66Z"/><path id="Shape-136" data-name="Shape" class="cls-1" d="M71,6.27A1,1,0,0,1,70.31,5,1,1,0,1,1,71,6.27Z"/><path id="Shape-137" data-name="Shape" class="cls-1" d="M74.44,7.11a1,1,0,1,1,1.29-.6A1,1,0,0,1,74.44,7.11Z"/><path id="Shape-138" data-name="Shape" class="cls-1" d="M77.84,8.17a1,1,0,1,1,.81-1.84,1,1,0,0,1-.81,1.84Z"/><path id="Shape-139" data-name="Shape" class="cls-1" d="M81.15,9.45A1,1,0,1,1,82.51,9,1,1,0,0,1,81.15,9.45Z"/><circle id="Oval-36" data-name="Oval" class="cls-1" cx="1.01" cy="58.52" r="1.01"/><path id="Shape-140" data-name="Shape" class="cls-1" d="M2.19,55.1A1,1,0,0,1,1,55.94a1,1,0,1,1,1.16-.84Z"/><circle id="Oval-37" data-name="Oval" class="cls-1" cx="1.6" cy="51.38" r="1.01"/><circle id="Oval-38" data-name="Oval" class="cls-1" cx="2.22" cy="47.84" r="1.01"/><path id="Shape-141" data-name="Shape" class="cls-1" d="M4,44.7a1,1,0,0,1-1.29.6,1,1,0,0,1,.68-1.89A1,1,0,0,1,4,44.7Z"/><path id="Shape-142" data-name="Shape" class="cls-1" d="M5,41.32a1,1,0,0,1-1.33.53A1,1,0,0,1,4.51,40,1,1,0,0,1,5,41.32Z"/><path id="Shape-143" data-name="Shape" class="cls-1" d="M6.27,38a1,1,0,0,1-1.36.44A1,1,0,1,1,6.27,38Z"/><circle id="Oval-39" data-name="Oval" class="cls-1" cx="6.82" cy="34.29" r="1.01"/><path id="Shape-144" data-name="Shape" class="cls-1" d="M9.32,31.66a1,1,0,0,1-1.4.28,1,1,0,1,1,1.4-.28Z"/><path id="Shape-145" data-name="Shape" class="cls-1" d="M11.13,28.64a1,1,0,1,1-.2-1.41A1,1,0,0,1,11.13,28.64Z"/><path id="Shape-146" data-name="Shape" class="cls-1" d="M13.12,25.73A1,1,0,1,1,13,24.31,1,1,0,0,1,13.12,25.73Z"/><path id="Shape-147" data-name="Shape" class="cls-1" d="M15.28,22.94a1,1,0,1,1,0-1.42A1,1,0,0,1,15.28,22.94Z"/><path id="Shape-148" data-name="Shape" class="cls-1" d="M17.62,20.3a1,1,0,0,1-1.43-.07,1,1,0,1,1,1.43.07Z"/><path id="Shape-149" data-name="Shape" class="cls-1" d="M20.1,17.8a1,1,0,0,1-1.26-1.57A1,1,0,1,1,20.1,17.8Z"/><path id="Shape-150" data-name="Shape" class="cls-1" d="M22.74,15.45a1,1,0,1,1,.24-1.4A1,1,0,0,1,22.74,15.45Z"/><path id="Shape-151" data-name="Shape" class="cls-1" d="M25.51,13.28A1,1,0,0,1,24.13,13a1,1,0,0,1,.32-1.38,1,1,0,0,1,1.39.32A1,1,0,0,1,25.51,13.28Z"/><path id="Shape-152" data-name="Shape" class="cls-1" d="M28.41,11.27a1,1,0,1,1,.41-1.36A1,1,0,0,1,28.41,11.27Z"/><path id="Shape-153" data-name="Shape" class="cls-1" d="M31.43,9.45A1,1,0,0,1,30.1,9a1,1,0,1,1,1.82-.84A1,1,0,0,1,31.43,9.45Z"/><path id="Shape-154" data-name="Shape" class="cls-1" d="M34.55,7.81a1,1,0,1,1,.57-1.31A1,1,0,0,1,34.55,7.81Z"/><path id="Shape-155" data-name="Shape" class="cls-1" d="M37.77,6.36a1,1,0,0,1-1.26-.65,1,1,0,0,1,.65-1.26,1,1,0,0,1,.61,1.91Z"/><path id="Shape-156" data-name="Shape" class="cls-1" d="M41.07,5.12a1,1,0,0,1-.5-1.95,1,1,0,1,1,.5,2Z"/><path id="Shape-157" data-name="Shape" class="cls-1" d="M44.44,4.08a1,1,0,0,1-1.18-.8,1,1,0,1,1,1.18.8Z"/><path id="Shape-158" data-name="Shape" class="cls-1" d="M47.87,3.24a1,1,0,1,1-.26-2,1,1,0,0,1,1.13.87A1,1,0,0,1,47.87,3.24Z"/><path id="Shape-159" data-name="Shape" class="cls-1" d="M51.34,2.62a1,1,0,0,1-1.07-.94A1,1,0,0,1,51.2.61a1,1,0,0,1,1.07.94A1,1,0,0,1,51.34,2.62Z"/><path id="Shape-160" data-name="Shape" class="cls-1" d="M54.84,2.21a1,1,0,0,1-1-1,1,1,0,0,1,2,0A1,1,0,0,1,54.84,2.21Z"/><path id="Shape-161" data-name="Shape" class="cls-1" d="M58.36,2a1,1,0,1,1,1.06-.95A1,1,0,0,1,58.36,2Z"/><path id="Shape-162" data-name="Shape" class="cls-1" d="M61.89,2A1,1,0,0,1,61,.91,1,1,0,0,1,62.12,0,1,1,0,0,1,63,1.15,1,1,0,0,1,61.89,2Z"/><path id="Shape-163" data-name="Shape" class="cls-1" d="M65.41,2.26a1,1,0,1,1,1.16-.81A1,1,0,0,1,65.41,2.26Z"/><path id="Shape-164" data-name="Shape" class="cls-1" d="M68.9,2.71A1,1,0,1,1,70.12,2,1,1,0,0,1,68.9,2.71Z"/><path id="Shape-165" data-name="Shape" class="cls-1" d="M72.37,3.37a1,1,0,1,1,1.26-.67A1,1,0,0,1,72.37,3.37Z"/><path id="Shape-166" data-name="Shape" class="cls-1" d="M75.79,4.24a1,1,0,1,1,1.29-.59A1,1,0,0,1,75.79,4.24Z"/><path id="Shape-167" data-name="Shape" class="cls-1" d="M79.14,5.31A1,1,0,0,1,78.64,4a1,1,0,1,1,1.83.82A1,1,0,0,1,79.14,5.31Z"/><path id="Shape-168" data-name="Shape" class="cls-1" d="M82.43,6.59a1,1,0,1,1,.93-1.78,1,1,0,0,1,.43,1.35A1,1,0,0,1,82.43,6.59Z"/><path id="Shape-169" data-name="Shape" class="cls-1" d="M33.18,58.54a1,1,0,1,1-1-1A1,1,0,0,1,33.18,58.54Z"/><path id="Shape-170" data-name="Shape" class="cls-1" d="M33.57,55.32a1,1,0,1,1-1.92-.23,1,1,0,1,1,1.92.23Z"/><path id="Shape-171" data-name="Shape" class="cls-1" d="M34.35,52.17a1,1,0,1,1-1.88-.46,1,1,0,0,1,1.19-.77A1,1,0,0,1,34.35,52.17Z"/><path id="Shape-172" data-name="Shape" class="cls-1" d="M35.5,49.14A1,1,0,1,1,35,47.83,1,1,0,0,1,35.5,49.14Z"/><path id="Shape-173" data-name="Shape" class="cls-1" d="M37,46.27a1,1,0,0,1-1.34.46,1,1,0,0,1,1-1.82A1,1,0,0,1,37,46.27Z"/><path id="Shape-174" data-name="Shape" class="cls-1" d="M38.85,43.6a1,1,0,0,1-1.38.29,1,1,0,0,1-.2-1.39,1,1,0,1,1,1.58,1.1Z"/><path id="Shape-175" data-name="Shape" class="cls-1" d="M41,41.18a1,1,0,1,1-1.44-1.29A1,1,0,1,1,41,41.18Z"/><path id="Shape-176" data-name="Shape" class="cls-1" d="M43.44,39a1,1,0,1,1,.14-1.41A1,1,0,0,1,43.44,39Z"/><path id="Shape-177" data-name="Shape" class="cls-1" d="M46.12,37.21A1,1,0,1,1,45,35.61a1,1,0,1,1,1.09,1.6Z"/><path id="Shape-178" data-name="Shape" class="cls-1" d="M49,35.71a1,1,0,1,1,.47-1.33A1,1,0,0,1,49,35.71Z"/><path id="Shape-179" data-name="Shape" class="cls-1" d="M52,34.58a1,1,0,1,1,.63-1.26A1,1,0,0,1,52,34.58Z"/><path id="Shape-180" data-name="Shape" class="cls-1" d="M55.19,33.82a1,1,0,1,1-.44-1.88,1,1,0,1,1,.44,1.88Z"/><path id="Shape-181" data-name="Shape" class="cls-1" d="M58.41,33.45a1,1,0,0,1-1.13-.84,1,1,0,0,1,2-.23A1,1,0,0,1,58.41,33.45Z"/><path id="Shape-182" data-name="Shape" class="cls-1" d="M61.66,33.48a1,1,0,1,1,1-1A1,1,0,0,1,61.66,33.48Z"/><path id="Shape-183" data-name="Shape" class="cls-1" d="M64.87,33.9A1,1,0,1,1,66,33.07,1,1,0,0,1,64.87,33.9Z"/><path id="Shape-184" data-name="Shape" class="cls-1" d="M68,34.7A1,1,0,1,1,69.25,34,1,1,0,0,1,68,34.7Z"/><path id="Shape-185" data-name="Shape" class="cls-1" d="M71,35.88a1,1,0,1,1,1.31-.52A1,1,0,0,1,71,35.88Z"/><path id="Shape-186" data-name="Shape" class="cls-1" d="M73.89,37.42a1,1,0,1,1,1.36-.36A1,1,0,0,1,73.89,37.42Z"/><path id="Shape-187" data-name="Shape" class="cls-1" d="M76.54,39.29a1,1,0,1,1,1.39-.19A1,1,0,0,1,76.54,39.29Z"/><path id="Shape-188" data-name="Shape" class="cls-1" d="M78.94,41.47a1,1,0,1,1,1.41,0A1,1,0,0,1,78.94,41.47Z"/><path id="Shape-189" data-name="Shape" class="cls-1" d="M81.06,43.92a1,1,0,1,1,1.4.15A1,1,0,0,1,81.06,43.92Z"/><path id="Shape-190" data-name="Shape" class="cls-1" d="M82.86,46.62a1,1,0,0,1,.24-1.39,1,1,0,0,1,1.37.32,1,1,0,1,1-1.61,1.07Z"/><path id="Shape-191" data-name="Shape" class="cls-1" d="M84.29,49.51a1,1,0,1,1,1.33.48A1,1,0,0,1,84.29,49.51Z"/><path id="Shape-192" data-name="Shape" class="cls-1" d="M85.43,52.56a1,1,0,1,1,1.26.64A1,1,0,0,1,85.43,52.56Z"/><path id="Shape-193" data-name="Shape" class="cls-1" d="M86.13,55.68a1,1,0,1,1,1.17.79A1,1,0,0,1,86.13,55.68Z"/><path id="Shape-194" data-name="Shape" class="cls-1" d="M86.33,58.72a1,1,0,1,1,1.06.92A1,1,0,0,1,86.33,58.72Z"/><path id="Shape-195" data-name="Shape" class="cls-1" d="M33.23,58.63a1,1,0,0,1-1.1.9,1,1,0,0,1,.2-2A1,1,0,0,1,33.23,58.63Z"/><path id="Shape-196" data-name="Shape" class="cls-1" d="M30.2,58.63a1,1,0,1,1-.9-1.11A1,1,0,0,1,30.2,58.63Z"/><path id="Shape-197" data-name="Shape" class="cls-1" d="M111.72,57.75a1,1,0,0,1,1.4.22,1,1,0,0,1-.22,1.41,1,1,0,0,1-1.41-.23A1,1,0,0,1,111.72,57.75Z"/><path id="Shape-198" data-name="Shape" class="cls-1" d="M111.46,54.22a1,1,0,1,1-.13,1.41A1,1,0,0,1,111.46,54.22Z"/><path id="Shape-199" data-name="Shape" class="cls-1" d="M111,50.71a1,1,0,0,1,1.43,0,1,1,0,1,1-1.43,0Z"/><path id="Shape-200" data-name="Shape" class="cls-1" d="M110.21,47.25a1,1,0,1,1,.07,1.42A1,1,0,0,1,110.21,47.25Z"/><path id="Shape-201" data-name="Shape" class="cls-1" d="M109.24,43.84a1,1,0,0,1,1.57,1.25,1,1,0,0,1-1.57-1.25Z"/><path id="Shape-202" data-name="Shape" class="cls-1" d="M108,40.51a1,1,0,0,1,1.4-.26,1,1,0,1,1-1.4.26Z"/><path id="Shape-203" data-name="Shape" class="cls-1" d="M106.6,37.27a1,1,0,1,1,.36,1.38A1,1,0,0,1,106.6,37.27Z"/><path id="Shape-204" data-name="Shape" class="cls-1" d="M105,34.13a1,1,0,1,1,.44,1.35A1,1,0,0,1,105,34.13Z"/><path id="Shape-205" data-name="Shape" class="cls-1" d="M103.1,31.12a1,1,0,0,1,1.32-.54A1,1,0,0,1,105,31.9a1,1,0,0,1-1.86-.78Z"/><path id="Shape-206" data-name="Shape" class="cls-1" d="M101,28.23a1,1,0,0,1,1.28-.62,1,1,0,1,1-1.28.62Z"/><path id="Shape-207" data-name="Shape" class="cls-1" d="M98.8,25.5a1,1,0,0,1,1.23-.71,1,1,0,1,1-.52,1.94A1,1,0,0,1,98.8,25.5Z"/><path id="Shape-208" data-name="Shape" class="cls-1" d="M96.36,22.92a1,1,0,1,1,.8,1.18A1,1,0,0,1,96.36,22.92Z"/><path id="Shape-209" data-name="Shape" class="cls-1" d="M93.76,20.52a1,1,0,1,1,2,.25,1,1,0,0,1-2-.25Z"/><path id="Shape-210" data-name="Shape" class="cls-1" d="M91,18.29a1,1,0,0,1,1.07-.94,1,1,0,0,1-.12,2A1,1,0,0,1,91,18.29Z"/><path id="Shape-211" data-name="Shape" class="cls-1" d="M88.1,16.27a1,1,0,0,1,1-1,1,1,0,1,1-1,1Z"/><path id="Shape-212" data-name="Shape" class="cls-1" d="M85.07,14.44a1,1,0,1,1,1.08.92A1,1,0,0,1,85.07,14.44Z"/><path id="Shape-213" data-name="Shape" class="cls-1" d="M81.91,12.83a1,1,0,1,1,1.15.84A1,1,0,0,1,81.91,12.83Z"/><path id="Shape-214" data-name="Shape" class="cls-1" d="M78.66,11.43a1,1,0,1,1,1.2.77A1,1,0,0,1,78.66,11.43Z"/><path id="Shape-215" data-name="Shape" class="cls-1" d="M75.32,10.26A1,1,0,0,1,76,9a1,1,0,0,1,1.25.69,1,1,0,0,1-1.93.56Z"/><path id="Shape-216" data-name="Shape" class="cls-1" d="M71.9,9.32a1,1,0,1,1,1.29.6A1,1,0,0,1,71.9,9.32Z"/><path id="Shape-217" data-name="Shape" class="cls-1" d="M68.43,8.61a1,1,0,0,1,.51-1.33,1,1,0,0,1,1.33.51,1,1,0,1,1-1.84.82Z"/><path id="Shape-218" data-name="Shape" class="cls-1" d="M64.92,8.15a1,1,0,1,1,1.36.41A1,1,0,0,1,64.92,8.15Z"/><path id="Shape-219" data-name="Shape" class="cls-1" d="M61.38,7.92a1,1,0,0,1,.33-1.39,1,1,0,0,1,1.06,1.71A1,1,0,0,1,61.38,7.92Z"/><path id="Shape-220" data-name="Shape" class="cls-1" d="M57.84,7.93a1,1,0,1,1,1.41.23A1,1,0,0,1,57.84,7.93Z"/><path id="Shape-221" data-name="Shape" class="cls-1" d="M54.31,8.19a1,1,0,1,1,1.42.13A1,1,0,0,1,54.31,8.19Z"/><path id="Shape-222" data-name="Shape" class="cls-1" d="M50.8,8.69a1,1,0,0,1,0-1.43,1,1,0,0,1,1.39,1.46A1,1,0,0,1,50.8,8.69Z"/><path id="Shape-223" data-name="Shape" class="cls-1" d="M47.34,9.42a1,1,0,1,1,1.42-.06A1,1,0,0,1,47.34,9.42Z"/><path id="Shape-224" data-name="Shape" class="cls-1" d="M43.93,10.39A1,1,0,0,1,43.77,9a1,1,0,0,1,1.58,1.26A1,1,0,0,1,43.93,10.39Z"/><circle id="Oval-40" data-name="Oval" class="cls-1" cx="109.18" cy="58.56" r="1.01"/><path id="Shape-225" data-name="Shape" class="cls-1" d="M110,54.93a1,1,0,0,1-1,1,1,1,0,0,1,0-2A1,1,0,0,1,110,54.93Z"/><circle id="Oval-41" data-name="Oval" class="cls-1" cx="108.45" cy="51.28" r="1.01"/><path id="Shape-226" data-name="Shape" class="cls-1" d="M108.68,47.57a1,1,0,0,1-.88,1.12,1,1,0,0,1-1.12-.87,1,1,0,0,1,.88-1.12A1,1,0,0,1,108.68,47.57Z"/><circle id="Oval-42" data-name="Oval" class="cls-1" cx="106.65" cy="44.18" r="1.01"/><circle id="Oval-43" data-name="Oval" class="cls-1" cx="105.36" cy="40.75" r="1.01"/><circle id="Oval-44" data-name="Oval" class="cls-1" cx="103.82" cy="37.42" r="1.01"/><path id="Shape-227" data-name="Shape" class="cls-1" d="M103,33.81a1,1,0,1,1-1.32-.5A1,1,0,0,1,103,33.81Z"/><path id="Shape-228" data-name="Shape" class="cls-1" d="M100.91,30.69a1,1,0,0,1-.41,1.36,1,1,0,1,1,.41-1.36Z"/><path id="Shape-229" data-name="Shape" class="cls-1" d="M98.63,27.72a1,1,0,0,1-.31,1.39,1,1,0,0,1-1.38-.31,1,1,0,1,1,1.69-1.08Z"/><circle id="Oval-45" data-name="Oval" class="cls-1" cx="95.34" cy="25.53" r="1.01"/><path id="Shape-230" data-name="Shape" class="cls-1" d="M93.46,22.33A1,1,0,1,1,92,22.24,1,1,0,0,1,93.46,22.33Z"/><path id="Shape-231" data-name="Shape" class="cls-1" d="M90.58,19.94a1,1,0,0,1,0,1.43,1,1,0,1,1,0-1.43Z"/><path id="Shape-232" data-name="Shape" class="cls-1" d="M87.54,17.77a1,1,0,1,1-1.31,1.53,1,1,0,0,1,1.31-1.53Z"/><path id="Shape-233" data-name="Shape" class="cls-1" d="M84.34,15.83a1,1,0,0,1,.22,1.41,1,1,0,0,1-1.4.22,1,1,0,0,1,1.18-1.63Z"/><path id="Shape-234" data-name="Shape" class="cls-1" d="M81,14.14a1,1,0,0,1,.33,1.38,1,1,0,0,1-1.39.32A1,1,0,0,1,81,14.14Z"/><path id="Shape-235" data-name="Shape" class="cls-1" d="M77.57,12.69a1,1,0,1,1-1.36.42A1,1,0,0,1,77.57,12.69Z"/><path id="Shape-236" data-name="Shape" class="cls-1" d="M74,11.5a1,1,0,1,1-.8,1.85A1,1,0,0,1,74,11.5Z"/><path id="Shape-237" data-name="Shape" class="cls-1" d="M71.09,10.49a1,1,0,1,1-.66,1.9,1,1,0,0,1-.62-1.28A1,1,0,0,1,71.09,10.49Z"/><circle id="Oval-46" data-name="Oval" class="cls-1" cx="106.05" cy="58.56" r="1.01"/><circle id="Oval-47" data-name="Oval" class="cls-1" cx="105.81" cy="54.95" r="1.01"/><path id="Shape-238" data-name="Shape" class="cls-1" d="M106.29,51.3a1,1,0,1,1-1.06-.95A1,1,0,0,1,106.29,51.3Z"/><path id="Shape-239" data-name="Shape" class="cls-1" d="M105.48,47.69a1,1,0,1,1-1.14-.86A1,1,0,0,1,105.48,47.69Z"/><circle id="Oval-48" data-name="Oval" class="cls-1" cx="103.4" cy="44.36" r="1.01"/><path id="Shape-240" data-name="Shape" class="cls-1" d="M103,40.71a1,1,0,1,1-1.25-.68A1,1,0,0,1,103,40.71Z"/><path id="Shape-241" data-name="Shape" class="cls-1" d="M101.39,37.38a1,1,0,0,1-.58,1.31,1,1,0,1,1,.58-1.31Z"/><path id="Shape-242" data-name="Shape" class="cls-1" d="M99.5,34.2a1,1,0,1,1-1.34-.47A1,1,0,0,1,99.5,34.2Z"/><path id="Shape-243" data-name="Shape" class="cls-1" d="M97.37,31.17A1,1,0,0,1,97,32.54a1,1,0,1,1,.36-1.37Z"/><path id="Shape-244" data-name="Shape" class="cls-1" d="M95,28.31a1,1,0,1,1-1.65,1.15A1,1,0,0,1,95,28.31Z"/><path id="Shape-245" data-name="Shape" class="cls-1" d="M92.44,25.65a1,1,0,0,1-.15,1.42A1,1,0,0,1,91,25.51,1,1,0,0,1,92.44,25.65Z"/><path id="Shape-246" data-name="Shape" class="cls-1" d="M89.66,23.2a1,1,0,1,1-1.42,0A1,1,0,0,1,89.66,23.2Z"/><path id="Shape-247" data-name="Shape" class="cls-1" d="M86.7,21a1,1,0,1,1-1.42.08A1,1,0,0,1,86.7,21Z"/><path id="Shape-248" data-name="Shape" class="cls-1" d="M83.57,19a1,1,0,0,1,.19,1.41,1,1,0,1,1-1.6-1.22A1,1,0,0,1,83.57,19Z"/><path id="Shape-249" data-name="Shape" class="cls-1" d="M80.3,17.26a1,1,0,1,1-1.39.3A1,1,0,0,1,80.3,17.26Z"/><path id="Shape-250" data-name="Shape" class="cls-1" d="M76.9,15.79a1,1,0,1,1-1,1.77,1,1,0,0,1-.41-1.36A1,1,0,0,1,76.9,15.79Z"/><path id="Shape-251" data-name="Shape" class="cls-1" d="M73.4,14.59a1,1,0,0,1,.51,1.32,1,1,0,1,1-1.83-.81A1,1,0,0,1,73.4,14.59Z"/><path id="Shape-252" data-name="Shape" class="cls-1" d="M69.82,13.66a1,1,0,1,1-1.29.62A1,1,0,0,1,69.82,13.66Z"/><path id="Shape-253" data-name="Shape" class="cls-1" d="M66.17,13a1,1,0,0,1,.71,1.23,1,1,0,0,1-1.23.72,1,1,0,0,1-.71-1.24A1,1,0,0,1,66.17,13Z"/><path id="Shape-254" data-name="Shape" class="cls-1" d="M62.48,12.67a1,1,0,1,1-1.17.81A1,1,0,0,1,62.48,12.67Z"/><path id="Shape-255" data-name="Shape" class="cls-1" d="M59.42,12.37a1,1,0,0,1-.36,2,1,1,0,0,1,.36-2Z"/><path id="Shape-256" data-name="Shape" class="cls-1" d="M103.92,58.66a1,1,0,0,1-2-.2,1,1,0,0,1,2,.2Z"/><path id="Shape-257" data-name="Shape" class="cls-1" d="M103.66,54.94a1,1,0,0,1-1,1,1,1,0,1,1,1-1Z"/><circle id="Oval-49" data-name="Oval" class="cls-1" cx="102.09" cy="51.33" r="1.01"/><circle id="Oval-50" data-name="Oval" class="cls-1" cx="101.22" cy="47.79" r="1.01"/><path id="Shape-258" data-name="Shape" class="cls-1" d="M101,44.11a1,1,0,1,1-2,.47,1,1,0,1,1,2-.47Z"/><path id="Shape-259" data-name="Shape" class="cls-1" d="M99.56,40.68a1,1,0,1,1-1.91.64,1,1,0,0,1,.64-1.27A1,1,0,0,1,99.56,40.68Z"/><path id="Shape-260" data-name="Shape" class="cls-1" d="M97.8,37.4a1,1,0,0,1-.52,1.32,1,1,0,1,1,.52-1.32Z"/><path id="Shape-261" data-name="Shape" class="cls-1" d="M95.77,34.27a1,1,0,1,1-1.36-.41A1,1,0,0,1,95.77,34.27Z"/><path id="Shape-262" data-name="Shape" class="cls-1" d="M93.49,31.33a1,1,0,1,1-1.4-.3A1,1,0,0,1,93.49,31.33Z"/><path id="Shape-263" data-name="Shape" class="cls-1" d="M91,28.59a1,1,0,1,1-1.41-.18A1,1,0,0,1,91,28.59Z"/><path id="Shape-264" data-name="Shape" class="cls-1" d="M88.21,26.07a1,1,0,0,1-1.48,1.37,1,1,0,1,1,1.48-1.37Z"/><path id="Shape-265" data-name="Shape" class="cls-1" d="M85.26,23.8a1,1,0,1,1-1.42.06A1,1,0,0,1,85.26,23.8Z"/><path id="Shape-266" data-name="Shape" class="cls-1" d="M82.13,21.78a1,1,0,1,1-1.41.18A1,1,0,0,1,82.13,21.78Z"/><path id="Shape-267" data-name="Shape" class="cls-1" d="M78.83,20a1,1,0,1,1-1.39.3A1,1,0,0,1,78.83,20Z"/><path id="Shape-268" data-name="Shape" class="cls-1" d="M75.41,18.57a1,1,0,1,1-1.36.42A1,1,0,0,1,75.41,18.57Z"/><path id="Shape-269" data-name="Shape" class="cls-1" d="M71.87,17.4a1,1,0,1,1-1.32.53A1,1,0,0,1,71.87,17.4Z"/><path id="Shape-270" data-name="Shape" class="cls-1" d="M68.24,16.54a1,1,0,0,1,.64,1.27,1,1,0,1,1-.64-1.27Z"/><path id="Shape-271" data-name="Shape" class="cls-1" d="M64.56,16a1,1,0,1,1-1.21.75A1,1,0,0,1,64.56,16Z"/><path id="Shape-272" data-name="Shape" class="cls-1" d="M60.84,15.74a1,1,0,0,1,.84,1.14,1,1,0,1,1-.84-1.14Z"/><path id="Shape-273" data-name="Shape" class="cls-1" d="M100.79,58.66a1,1,0,0,1-2-.2,1,1,0,0,1,2,.2Z"/><path id="Shape-274" data-name="Shape" class="cls-1" d="M100.51,55a1,1,0,0,1-2,0,1,1,0,1,1,2,0Z"/><path id="Shape-275" data-name="Shape" class="cls-1" d="M99.91,51.31A1,1,0,0,1,99,52.39a1,1,0,0,1-1.09-.92,1,1,0,0,1,2-.16Z"/><path id="Shape-276" data-name="Shape" class="cls-1" d="M99,47.72a1,1,0,1,1-1.16-.82A1,1,0,0,1,99,47.72Z"/><path id="Shape-277" data-name="Shape" class="cls-1" d="M97.72,44.23a1,1,0,1,1-1.23-.71A1,1,0,0,1,97.72,44.23Z"/><path id="Shape-278" data-name="Shape" class="cls-1" d="M96.15,40.87a1,1,0,1,1-1.29-.59A1,1,0,0,1,96.15,40.87Z"/><path id="Shape-279" data-name="Shape" class="cls-1" d="M94.29,37.67A1,1,0,1,1,93,37.19,1,1,0,0,1,94.29,37.67Z"/><path id="Shape-280" data-name="Shape" class="cls-1" d="M92.15,34.64a1,1,0,1,1-1.38-.35A1,1,0,0,1,92.15,34.64Z"/><path id="Shape-281" data-name="Shape" class="cls-1" d="M89.74,31.83A1,1,0,1,1,88.11,33a1,1,0,1,1,1.63-1.17Z"/><path id="Shape-282" data-name="Shape" class="cls-1" d="M87.09,29.24a1,1,0,1,1-1.52,1.32,1,1,0,0,1,1.52-1.32Z"/><path id="Shape-283" data-name="Shape" class="cls-1" d="M84.21,26.9a1,1,0,0,1,0,1.42,1,1,0,0,1-1.43,0,1,1,0,0,1,1.4-1.45Z"/><path id="Shape-284" data-name="Shape" class="cls-1" d="M81.13,24.83a1,1,0,1,1-1.25,1.57,1,1,0,1,1,1.25-1.57Z"/><path id="Shape-285" data-name="Shape" class="cls-1" d="M77.88,23.05a1,1,0,1,1-1.39.28A1,1,0,0,1,77.88,23.05Z"/><path id="Shape-286" data-name="Shape" class="cls-1" d="M74.48,21.57a1,1,0,1,1-1,1.77A1,1,0,0,1,73.12,22,1,1,0,0,1,74.48,21.57Z"/><path id="Shape-287" data-name="Shape" class="cls-1" d="M71,20.4a1,1,0,1,1-1.32.53A1,1,0,0,1,71,20.4Z"/><path id="Shape-288" data-name="Shape" class="cls-1" d="M67.36,19.55a1,1,0,1,1-1.27.65A1,1,0,0,1,67.36,19.55Z"/><path id="Shape-289" data-name="Shape" class="cls-1" d="M63.69,19a1,1,0,0,1,.76,1.2,1,1,0,0,1-1.21.76,1,1,0,1,1,.45-2Z"/><path id="Shape-290" data-name="Shape" class="cls-1" d="M60,18.86a1,1,0,1,1-1.13.86A1,1,0,0,1,60,18.86Z"/><path id="Shape-291" data-name="Shape" class="cls-1" d="M97.25,57.75a1,1,0,1,1-1.4.21A1,1,0,0,1,97.25,57.75Z"/><circle id="Oval-51" data-name="Oval" class="cls-1" cx="96.35" cy="54.94" r="1.01"/><path id="Shape-292" data-name="Shape" class="cls-1" d="M96.12,50.46a1,1,0,1,1-1.34.48A1,1,0,0,1,96.12,50.46Z"/><path id="Shape-293" data-name="Shape" class="cls-1" d="M95,46.94a1,1,0,1,1-1.29.6A1,1,0,0,1,95,46.94Z"/><path id="Shape-294" data-name="Shape" class="cls-1" d="M93.59,43.53a1,1,0,0,1,.73,1.23,1,1,0,0,1-1.22.73,1,1,0,0,1,.49-2Z"/><circle id="Oval-52" data-name="Oval" class="cls-1" cx="91.67" cy="41.29" r="1.01"/><path id="Shape-295" data-name="Shape" class="cls-1" d="M89.74,37.24a1,1,0,1,1-1,.95A1,1,0,0,1,89.74,37.24Z"/><path id="Shape-296" data-name="Shape" class="cls-1" d="M87.37,34.4a1,1,0,1,1-1,1.06A1,1,0,0,1,87.37,34.4Z"/><path id="Shape-297" data-name="Shape" class="cls-1" d="M84.73,31.81A1,1,0,1,1,83.89,33,1,1,0,0,1,84.73,31.81Z"/><path id="Shape-298" data-name="Shape" class="cls-1" d="M81.86,29.5a1,1,0,1,1-.73,1.22A1,1,0,0,1,81.86,29.5Z"/><path id="Shape-299" data-name="Shape" class="cls-1" d="M78.76,27.48a1,1,0,1,1-.6,1.29A1,1,0,0,1,78.76,27.48Z"/><circle id="Oval-53" data-name="Oval" class="cls-1" cx="75.92" cy="26.68" r="1.01"/><circle id="Oval-54" data-name="Oval" class="cls-1" cx="72.58" cy="25.26" r="1.01"/><path id="Shape-300" data-name="Shape" class="cls-1" d="M68.51,23.36a1,1,0,1,1-.2,1.41A1,1,0,0,1,68.51,23.36Z"/><path id="Shape-301" data-name="Shape" class="cls-1" d="M64.88,22.69a1,1,0,0,1,1.36,1.48,1,1,0,1,1-1.36-1.48Z"/><path id="Shape-302" data-name="Shape" class="cls-1" d="M61,22.37a1,1,0,1,1,.08,1.42A1,1,0,0,1,61,22.37Z"/><path id="Shape-303" data-name="Shape" class="cls-1" d="M25.46,57.71a1,1,0,1,1,1.18,1.63,1,1,0,0,1-1.18-1.63Z"/><path id="Shape-304" data-name="Shape" class="cls-1" d="M25.87,54.17a1,1,0,1,1-.37,1.37A1,1,0,0,1,25.87,54.17Z"/><path id="Shape-305" data-name="Shape" class="cls-1" d="M26.63,50.69A1,1,0,1,1,26.12,52,1,1,0,0,1,26.63,50.69Z"/><path id="Shape-306" data-name="Shape" class="cls-1" d="M27.76,47.3a1,1,0,1,1-.65,1.27A1,1,0,0,1,27.76,47.3Z"/><path id="Shape-307" data-name="Shape" class="cls-1" d="M29.23,44.05a1,1,0,1,1-.78,1.2A1,1,0,0,1,29.23,44.05Z"/><path id="Shape-308" data-name="Shape" class="cls-1" d="M31,41a1,1,0,1,1-.89,1.11A1,1,0,0,1,31,41Z"/><path id="Shape-309" data-name="Shape" class="cls-1" d="M33.13,38.09a1,1,0,1,1-1,1A1,1,0,0,1,33.13,38.09Z"/><path id="Shape-310" data-name="Shape" class="cls-1" d="M35.52,35.45a1,1,0,0,1-.2,2,1,1,0,0,1,.2-2Z"/><path id="Shape-311" data-name="Shape" class="cls-1" d="M38.38,32.79a1,1,0,1,1-.4,2,1,1,0,0,1,.4-2Z"/><path id="Shape-312" data-name="Shape" class="cls-1" d="M41.58,30.37a1,1,0,0,1,.66,1.27,1,1,0,0,1-1.27.65A1,1,0,0,1,40.32,31,1,1,0,0,1,41.58,30.37Z"/><path id="Shape-313" data-name="Shape" class="cls-1" d="M45.32,28.39a1,1,0,0,1,.53,1.32,1,1,0,1,1-1.85-.8A1,1,0,0,1,45.32,28.39Z"/><path id="Shape-314" data-name="Shape" class="cls-1" d="M48.91,26.93a1,1,0,0,1,.38,1.37,1,1,0,0,1-1.75-1A1,1,0,0,1,48.91,26.93Z"/><path id="Shape-315" data-name="Shape" class="cls-1" d="M52.44,26.06a1,1,0,0,1,.24,1.41,1,1,0,1,1-.24-1.41Z"/><path id="Shape-316" data-name="Shape" class="cls-1" d="M55.84,25.26a1,1,0,1,1-1.42.09A1,1,0,0,1,55.84,25.26Z"/><path id="Shape-317" data-name="Shape" class="cls-1" d="M59.53,25.11a1,1,0,1,1-1.42-.05A1,1,0,0,1,59.53,25.11Z"/><path id="Shape-318" data-name="Shape" class="cls-1" d="M63.35,25.28a1,1,0,1,1-1.41-.2A1,1,0,0,1,63.35,25.28Z"/><path id="Shape-319" data-name="Shape" class="cls-1" d="M66.73,25.89a1,1,0,0,1-.35,1.38,1,1,0,1,1,.35-1.38Z"/><path id="Shape-320" data-name="Shape" class="cls-1" d="M70.24,26.63a1,1,0,1,1-1.34-.49A1,1,0,0,1,70.24,26.63Z"/><path id="Shape-321" data-name="Shape" class="cls-1" d="M73.69,28.05a1,1,0,1,1-1.27-.63A1,1,0,0,1,73.69,28.05Z"/><path id="Shape-322" data-name="Shape" class="cls-1" d="M76.94,29.56a1,1,0,0,1-.76,1.21A1,1,0,0,1,75,30a1,1,0,0,1,.75-1.2A1,1,0,0,1,76.94,29.56Z"/><path id="Shape-323" data-name="Shape" class="cls-1" d="M79.93,31.65a1,1,0,1,1-1.12-.88A1,1,0,0,1,79.93,31.65Z"/><path id="Shape-324" data-name="Shape" class="cls-1" d="M82.6,33.7a1,1,0,1,1-1-1A1,1,0,0,1,82.6,33.7Z"/><path id="Shape-325" data-name="Shape" class="cls-1" d="M85.38,36.35a1,1,0,1,1-.92-1.09A1,1,0,0,1,85.38,36.35Z"/><path id="Shape-326" data-name="Shape" class="cls-1" d="M87.51,39.06a1,1,0,1,1-.8-1.18A1,1,0,0,1,87.51,39.06Z"/><path id="Shape-327" data-name="Shape" class="cls-1" d="M89.27,42a1,1,0,1,1-.68-1.25A1,1,0,0,1,89.27,42Z"/><path id="Shape-328" data-name="Shape" class="cls-1" d="M90.9,45.11a1,1,0,1,1-.55-1.32A1,1,0,0,1,90.9,45.11Z"/><path id="Shape-329" data-name="Shape" class="cls-1" d="M92.48,48.73a1,1,0,1,1-1.77-1,1,1,0,0,1,1.77,1Z"/><path id="Shape-330" data-name="Shape" class="cls-1" d="M93.22,52.1A1,1,0,1,1,93,50.7,1,1,0,0,1,93.22,52.1Z"/><path id="Shape-331" data-name="Shape" class="cls-1" d="M93.9,55.69a1,1,0,0,1-1.41.12,1,1,0,1,1,1.41-.12Z"/><circle id="Oval-55" data-name="Oval" class="cls-1" cx="93.52" cy="58.56" r="1.01"/><path id="Shape-332" data-name="Shape" class="cls-1" d="M119.49,58.66a1,1,0,1,1-.9-1.1A1,1,0,0,1,119.49,58.66Z"/><circle id="Oval-56" data-name="Oval" class="cls-1" cx="118.31" cy="55.1" r="1.01"/><path id="Shape-333" data-name="Shape" class="cls-1" d="M118.94,51.63a1,1,0,1,1-1-1A1,1,0,0,1,118.94,51.63Z"/><circle id="Oval-57" data-name="Oval" class="cls-1" cx="117.34" cy="48.23" r="1.01"/><circle id="Oval-58" data-name="Oval" class="cls-1" cx="116.56" cy="44.85" r="1.01"/><circle id="Oval-59" data-name="Oval" class="cls-1" cx="115.57" cy="41.53" r="1.01"/><path id="Shape-334" data-name="Shape" class="cls-1" d="M115.37,38a1,1,0,1,1-1.23-.72A1,1,0,0,1,115.37,38Z"/><path id="Shape-335" data-name="Shape" class="cls-1" d="M114,34.77a1,1,0,1,1-1.26-.65A1,1,0,0,1,114,34.77Z"/><path id="Shape-336" data-name="Shape" class="cls-1" d="M112.41,31.61a1,1,0,1,1-1.88.73,1,1,0,0,1,1.88-.73Z"/><path id="Shape-337" data-name="Shape" class="cls-1" d="M110.65,28.55a1,1,0,1,1-1.34-.49A1,1,0,0,1,110.65,28.55Z"/><path id="Shape-338" data-name="Shape" class="cls-1" d="M108.71,25.61a1,1,0,1,1-1.36-.42A1,1,0,0,1,108.71,25.61Z"/><path id="Shape-339" data-name="Shape" class="cls-1" d="M106.6,22.78a1,1,0,0,1-.33,1.38,1,1,0,0,1-1-1.71A1,1,0,0,1,106.6,22.78Z"/><path id="Shape-340" data-name="Shape" class="cls-1" d="M104.33,20.08a1,1,0,1,1-1.4-.25A1,1,0,0,1,104.33,20.08Z"/><path id="Shape-341" data-name="Shape" class="cls-1" d="M101.91,17.52a1,1,0,0,1-1.58,1.25,1,1,0,1,1,1.58-1.25Z"/><path id="Shape-342" data-name="Shape" class="cls-1" d="M99.33,15.11A1,1,0,1,1,97.91,15,1,1,0,0,1,99.33,15.11Z"/><circle id="Oval-60" data-name="Oval" class="cls-1" cx="95.91" cy="13.56" r="1.01"/><path id="Shape-343" data-name="Shape" class="cls-1" d="M93.78,10.76a1,1,0,1,1-1.42.08A1,1,0,0,1,93.78,10.76Z"/><path id="Shape-344" data-name="Shape" class="cls-1" d="M90.82,8.84A1,1,0,1,1,89.41,9,1,1,0,0,1,90.82,8.84Z"/><path id="Shape-345" data-name="Shape" class="cls-1" d="M87.36,6.91a1,1,0,1,1-1.4.25A1,1,0,0,1,87.36,6.91Z"/><circle id="Oval-61" data-name="Oval" class="cls-1" cx="115.46" cy="58.56" r="1.01"/><path id="Shape-346" data-name="Shape" class="cls-1" d="M114.84,54.1a1,1,0,1,1,.84,1.83,1,1,0,0,1-.84-1.83Z"/><circle id="Oval-62" data-name="Oval" class="cls-1" cx="114.84" cy="51.48" r="1.01"/><path id="Shape-347" data-name="Shape" class="cls-1" d="M113.66,47.13a1,1,0,1,1-.32,1.39A1,1,0,0,1,113.66,47.13Z"/><circle id="Oval-63" data-name="Oval" class="cls-1" cx="113.33" cy="44.54" r="1.01"/><path id="Shape-348" data-name="Shape" class="cls-1" d="M111.61,40.37a1,1,0,0,1,1.27,1.56,1,1,0,1,1-1.27-1.56Z"/><path id="Shape-349" data-name="Shape" class="cls-1" d="M110.26,37.11a1,1,0,1,1-.05,1.42A1,1,0,0,1,110.26,37.11Z"/><path id="Shape-350" data-name="Shape" class="cls-1" d="M108.71,33.93a1,1,0,0,1,1.42,0,1,1,0,1,1-1.42,0Z"/><path id="Shape-351" data-name="Shape" class="cls-1" d="M107,30.86a1,1,0,0,1,1.42-.12,1,1,0,1,1-1.29,1.54A1,1,0,0,1,107,30.86Z"/><circle id="Oval-64" data-name="Oval" class="cls-1" cx="105.82" cy="28.51" r="1.01"/><path id="Shape-352" data-name="Shape" class="cls-1" d="M102.88,25.09a1,1,0,1,1,.3,1.39A1,1,0,0,1,102.88,25.09Z"/><path id="Shape-353" data-name="Shape" class="cls-1" d="M100.57,22.42a1,1,0,1,1,.4,1.36A1,1,0,0,1,100.57,22.42Z"/><path id="Shape-354" data-name="Shape" class="cls-1" d="M98.1,19.89a1,1,0,1,1,.48,1.34A1,1,0,0,1,98.1,19.89Z"/><path id="Shape-355" data-name="Shape" class="cls-1" d="M95.47,17.53a1,1,0,1,1,.57,1.3A1,1,0,0,1,95.47,17.53Z"/><path id="Shape-356" data-name="Shape" class="cls-1" d="M92.7,15.34A1,1,0,0,1,94,14.69,1,1,0,0,1,94.61,16a1,1,0,1,1-1.91-.62Z"/><path id="Shape-357" data-name="Shape" class="cls-1" d="M89.79,13.33A1,1,0,0,1,91,12.6a1,1,0,0,1,.73,1.23,1,1,0,0,1-1.22.72A1,1,0,0,1,89.79,13.33Z"/><path id="Shape-358" data-name="Shape" class="cls-1" d="M86.76,11.51a1,1,0,0,1,2,.37,1,1,0,1,1-2-.37Z"/><path id="Shape-359" data-name="Shape" class="cls-1" d="M83.62,9.89A1,1,0,1,1,84.49,11,1,1,0,0,1,83.62,9.89Z"/></g></g></g></g></g></g></g></svg>