<?xml version="1.0" encoding="utf-8"?>
<!-- Generator: Adobe Illustrator 16.0.0, SVG Export Plug-In . SVG Version: 6.00 Build 0)  -->
<!DOCTYPE svg PUBLIC "-//W3C//DTD SVG 1.1//EN" "http://www.w3.org/Graphics/SVG/1.1/DTD/svg11.dtd">
<svg version="1.1" id="Layer_1" xmlns="http://www.w3.org/2000/svg" xmlns:xlink="http://www.w3.org/1999/xlink" x="0px" y="0px"
	 width="91.667px" height="92.406px" viewBox="0 0 91.667 92.406" enable-background="new 0 0 91.667 92.406" xml:space="preserve">
<path id="magnifier-2-icon" fill="#FFFFFF" d="M91.729,82.583l-18.248-18.12c4.873-6.698,7.752-14.938,7.752-23.838
	c0-22.396-18.221-40.616-40.616-40.616C18.221,0.009,0,18.23,0,40.625C0,63.02,18.222,81.241,40.617,81.241
	c8.488,0,16.375-2.619,22.901-7.093l18.385,18.258L91.729,82.583z M11.91,40.625c0-15.828,12.877-28.706,28.707-28.706
	c15.829,0,28.706,12.877,28.706,28.706c0,15.828-12.877,28.705-28.706,28.705C24.787,69.33,11.91,56.453,11.91,40.625z"/>
</svg>
