<?xml version="1.0" encoding="utf-8"?>
<!-- Generator: Adobe Illustrator 16.0.0, SVG Export Plug-In . SVG Version: 6.00 Build 0)  -->
<!DOCTYPE svg PUBLIC "-//W3C//DTD SVG 1.1//EN" "http://www.w3.org/Graphics/SVG/1.1/DTD/svg11.dtd">
<svg version="1.1" id="Layer_1" xmlns="http://www.w3.org/2000/svg" xmlns:xlink="http://www.w3.org/1999/xlink" x="0px" y="0px"
	 width="412.844px" height="336.334px" viewBox="0 0 412.844 336.334" enable-background="new 0 0 412.844 336.334"
	 xml:space="preserve">
<path id="twitter-icon" fill="#FFFFFF" d="M412,41.144c-15.158,6.724-31.449,11.269-48.547,13.31
	c17.449-10.461,30.854-27.025,37.164-46.764c-16.333,9.687-34.422,16.721-53.676,20.511C331.523,11.773,309.555,1.51,285.243,1.51
	c-54.56,0-94.668,50.916-82.337,103.787c-70.25-3.524-132.534-37.177-174.223-88.314c-22.142,37.983-11.485,87.691,26.158,112.85
	c-13.854-0.438-26.891-4.241-38.285-10.574c-0.917,39.162,27.146,75.781,67.795,83.949c-11.896,3.236-24.926,3.979-38.17,1.447
	c10.754,33.58,41.972,58.018,78.96,58.699C89.604,291.203,44.846,303.642,0,298.356c37.406,23.979,81.837,37.978,129.571,37.978
	c156.932,0,245.595-132.552,240.251-251.435C386.339,72.982,400.668,58.095,412,41.144z"/>
</svg>
