<svg xmlns="http://www.w3.org/2000/svg" viewBox="0 0 90 90"><defs><style>.cls-1{fill:#fff;}</style></defs><title>Asset 1</title><g id="Layer_2" data-name="Layer 2"><g id="Layer_1-2" data-name="Layer 1"><path class="cls-1" d="M90,43.84A44.26,44.26,0,0,1,24.46,82.23L0,90,8,66.48A43.34,43.34,0,0,1,1.64,43.84a44.18,44.18,0,0,1,88.36,0M45.82,7A37,37,0,0,0,8.67,43.84a36.43,36.43,0,0,0,7.08,21.61L11.11,79.14,25.38,74.6A37.18,37.18,0,0,0,83,43.84,37,37,0,0,0,45.82,7m22.31,47c-.27-.45-1-.72-2.08-1.26s-6.41-3.13-7.4-3.49-1.71-.54-2.43.54-2.8,3.49-3.44,4.21-1.26.81-2.34.27a29.74,29.74,0,0,1-8.71-5.33,32.87,32.87,0,0,1-6-7.44c-.63-1.08-.06-1.66.48-2.2S37.26,38,37.8,37.36a7,7,0,0,0,1.09-1.79,2,2,0,0,0-.09-1.88c-.27-.54-2.44-5.83-3.34-8S33.65,23.92,33,23.92s-1.35-.09-2.08-.09a4,4,0,0,0-2.88,1.34,12,12,0,0,0-3.79,9c0,5.29,3.88,10.4,4.42,11.12s7.49,11.92,18.5,16.22,11,2.87,13,2.69,6.4-2.6,7.31-5.11.9-4.66.63-5.11"/></g></g></svg>